<svg xmlns="http://www.w3.org/2000/svg" xmlns:xlink="http://www.w3.org/1999/xlink" width="48" zoomAndPan="magnify" viewBox="0 0 36 36.000001" height="48" preserveAspectRatio="xMidYMid meet" version="1.0"><defs><clipPath id="e931c0ef58"><path d="M 0.851562 5 L 7 5 L 7 12 L 0.851562 12 Z M 0.851562 5 " clip-rule="nonzero"/></clipPath><clipPath id="0ccb079f0e"><path d="M 6 28 L 12 28 L 12 34.816406 L 6 34.816406 Z M 6 28 " clip-rule="nonzero"/></clipPath><clipPath id="84b51f742e"><path d="M 19 28 L 25 28 L 25 34.816406 L 19 34.816406 Z M 19 28 " clip-rule="nonzero"/></clipPath><clipPath id="02487b7ad8"><path d="M 19 28 L 26 28 L 26 34.816406 L 19 34.816406 Z M 19 28 " clip-rule="nonzero"/></clipPath><clipPath id="379cb8dcdd"><path d="M 32 11 L 35.148438 11 L 35.148438 14 L 32 14 Z M 32 11 " clip-rule="nonzero"/></clipPath><clipPath id="b2825c8aac"><path d="M 17 0.519531 L 20 0.519531 L 20 3 L 17 3 Z M 17 0.519531 " clip-rule="nonzero"/></clipPath></defs><path fill="#ffce00" d="M 24.058594 25.078125 L 6.171875 25.078125 L 6.171875 11.648438 L 24.058594 11.648438 C 25.5 11.648438 26.671875 12.820312 26.671875 14.261719 L 26.671875 22.46875 C 26.671875 23.910156 25.5 25.078125 24.058594 25.078125 Z M 24.058594 25.078125 " fill-opacity="1" fill-rule="nonzero"/><path fill="#000000" d="M 13.605469 25.363281 L 5.890625 25.363281 L 5.890625 11.367188 L 14.730469 11.367188 C 14.886719 11.367188 15.015625 11.496094 15.015625 11.648438 C 15.015625 11.804688 14.886719 11.933594 14.730469 11.933594 L 6.453125 11.933594 L 6.453125 24.800781 L 13.605469 24.800781 C 13.761719 24.800781 13.886719 24.925781 13.886719 25.082031 C 13.886719 25.234375 13.761719 25.363281 13.605469 25.363281 Z M 13.605469 25.363281 " fill-opacity="1" fill-rule="nonzero"/><path fill="#000000" d="M 25.425781 25.363281 L 14.730469 25.363281 C 14.578125 25.363281 14.449219 25.234375 14.449219 25.078125 C 14.449219 24.925781 14.574219 24.796875 14.730469 24.796875 L 25.425781 24.796875 C 25.578125 24.796875 25.707031 24.925781 25.707031 25.078125 C 25.707031 25.234375 25.578125 25.363281 25.425781 25.363281 Z M 25.425781 25.363281 " fill-opacity="1" fill-rule="nonzero"/><path fill="#000000" d="M 26.671875 24.113281 C 26.515625 24.113281 26.386719 23.988281 26.386719 23.832031 L 26.386719 12.894531 C 26.386719 12.363281 25.957031 11.929688 25.421875 11.929688 L 22.960938 11.929688 C 22.808594 11.929688 22.679688 11.804688 22.679688 11.648438 C 22.679688 11.496094 22.804688 11.367188 22.960938 11.367188 L 25.421875 11.367188 C 26.265625 11.367188 26.953125 12.054688 26.953125 12.894531 L 26.953125 23.832031 C 26.953125 23.988281 26.828125 24.113281 26.671875 24.113281 Z M 26.671875 24.113281 " fill-opacity="1" fill-rule="nonzero"/><path fill="#000000" d="M 20.984375 11.929688 L 16.722656 11.929688 C 16.566406 11.929688 16.441406 11.804688 16.441406 11.648438 C 16.441406 11.496094 16.566406 11.367188 16.722656 11.367188 L 20.984375 11.367188 C 21.136719 11.367188 21.265625 11.492188 21.265625 11.648438 C 21.265625 11.804688 21.136719 11.929688 20.984375 11.929688 Z M 20.984375 11.929688 " fill-opacity="1" fill-rule="nonzero"/><g clip-path="url(#e931c0ef58)"><path fill="#000000" d="M 6.171875 11.929688 C 6.015625 11.929688 5.890625 11.804688 5.890625 11.648438 L 5.890625 6.53125 L 1.132812 6.53125 C 0.976562 6.53125 0.851562 6.40625 0.851562 6.25 C 0.851562 6.09375 0.976562 5.96875 1.132812 5.96875 L 6.453125 5.96875 L 6.453125 11.648438 C 6.453125 11.804688 6.328125 11.929688 6.171875 11.929688 Z M 6.171875 11.929688 " fill-opacity="1" fill-rule="nonzero"/></g><path fill="#000000" d="M 29.148438 28.050781 L 27.820312 28.050781 C 27.667969 28.050781 27.539062 27.921875 27.539062 27.769531 C 27.539062 27.613281 27.664062 27.484375 27.820312 27.484375 L 29.148438 27.484375 C 29.304688 27.484375 29.429688 27.613281 29.429688 27.769531 C 29.429688 27.921875 29.304688 28.050781 29.148438 28.050781 Z M 29.148438 28.050781 " fill-opacity="1" fill-rule="nonzero"/><path fill="#000000" d="M 25.425781 28.050781 L 20.984375 28.050781 C 20.828125 28.050781 20.703125 27.921875 20.703125 27.769531 C 20.703125 27.613281 20.828125 27.484375 20.984375 27.484375 L 25.425781 27.484375 C 25.578125 27.484375 25.707031 27.613281 25.707031 27.769531 C 25.707031 27.921875 25.578125 28.050781 25.425781 28.050781 Z M 25.425781 28.050781 " fill-opacity="1" fill-rule="nonzero"/><path fill="#000000" d="M 18.851562 28.050781 L 3.757812 28.050781 L 5.941406 24.921875 C 6.03125 24.792969 6.207031 24.761719 6.332031 24.851562 C 6.460938 24.9375 6.492188 25.113281 6.402344 25.242188 L 4.835938 27.488281 L 18.855469 27.488281 C 19.007812 27.488281 19.136719 27.613281 19.136719 27.769531 C 19.136719 27.925781 19.007812 28.050781 18.851562 28.050781 Z M 18.851562 28.050781 " fill-opacity="1" fill-rule="nonzero"/><path fill="#ffce00" d="M 9.105469 28.777344 C 9.796875 28.777344 10.429688 29.050781 10.894531 29.492188 C 11.015625 29.605469 11.125 29.730469 11.222656 29.867188 C 11.269531 29.933594 11.3125 30 11.355469 30.070312 C 11.582031 30.457031 11.710938 30.90625 11.710938 31.386719 C 11.710938 32.828125 10.542969 33.996094 9.101562 33.996094 C 7.664062 33.996094 6.496094 32.828125 6.496094 31.386719 C 6.496094 30.316406 7.140625 29.394531 8.070312 28.992188 " fill-opacity="1" fill-rule="nonzero"/><g clip-path="url(#0ccb079f0e)"><path fill="#000000" d="M 9.105469 34.277344 C 7.511719 34.277344 6.214844 32.980469 6.214844 31.386719 C 6.214844 30.234375 6.898438 29.191406 7.957031 28.734375 C 8.097656 28.671875 8.265625 28.738281 8.328125 28.878906 C 8.386719 29.023438 8.324219 29.1875 8.179688 29.25 C 7.328125 29.617188 6.777344 30.457031 6.777344 31.386719 C 6.777344 32.667969 7.820312 33.710938 9.105469 33.710938 C 10.386719 33.710938 11.429688 32.667969 11.429688 31.386719 C 11.429688 31.230469 11.554688 31.105469 11.710938 31.105469 C 11.867188 31.105469 11.996094 31.230469 11.996094 31.386719 C 11.992188 32.980469 10.695312 34.277344 9.105469 34.277344 Z M 9.105469 34.277344 " fill-opacity="1" fill-rule="nonzero"/></g><g clip-path="url(#84b51f742e)"><path fill="#ffce00" d="M 22.195312 28.992188 C 22.890625 28.992188 23.523438 29.261719 23.988281 29.703125 C 24.109375 29.820312 24.21875 29.945312 24.316406 30.082031 C 24.363281 30.144531 24.40625 30.214844 24.445312 30.28125 C 24.675781 30.667969 24.804688 31.121094 24.804688 31.601562 C 24.804688 33.039062 23.636719 34.207031 22.195312 34.207031 C 20.753906 34.207031 19.585938 33.039062 19.585938 31.601562 C 19.585938 30.527344 20.234375 29.605469 21.160156 29.207031 " fill-opacity="1" fill-rule="nonzero"/></g><g clip-path="url(#02487b7ad8)"><path fill="#000000" d="M 22.195312 34.492188 C 20.601562 34.492188 19.308594 33.195312 19.308594 31.601562 C 19.308594 30.449219 19.992188 29.40625 21.050781 28.949219 C 21.191406 28.886719 21.355469 28.953125 21.417969 29.09375 C 21.480469 29.238281 21.414062 29.402344 21.273438 29.464844 C 20.421875 29.832031 19.871094 30.671875 19.871094 31.601562 C 19.871094 32.882812 20.914062 33.925781 22.195312 33.925781 C 23.480469 33.925781 24.523438 32.882812 24.523438 31.601562 C 24.523438 31.445312 24.648438 31.320312 24.804688 31.320312 C 24.960938 31.320312 25.085938 31.445312 25.085938 31.601562 C 25.085938 33.195312 23.789062 34.492188 22.195312 34.492188 Z M 22.195312 34.492188 " fill-opacity="1" fill-rule="nonzero"/></g><path fill="#000000" d="M 11.355469 30.351562 C 11.257812 30.351562 11.164062 30.300781 11.113281 30.210938 C 11.074219 30.148438 11.035156 30.089844 10.996094 30.03125 C 10.910156 29.910156 10.808594 29.796875 10.703125 29.695312 C 10.269531 29.285156 9.703125 29.0625 9.105469 29.0625 C 8.949219 29.0625 8.824219 28.933594 8.824219 28.777344 C 8.824219 28.625 8.949219 28.496094 9.105469 28.496094 C 9.847656 28.496094 10.550781 28.777344 11.089844 29.285156 C 11.222656 29.414062 11.34375 29.554688 11.453125 29.703125 C 11.503906 29.773438 11.554688 29.847656 11.597656 29.925781 C 11.675781 30.058594 11.632812 30.234375 11.5 30.3125 C 11.453125 30.335938 11.402344 30.351562 11.355469 30.351562 Z M 11.355469 30.351562 " fill-opacity="1" fill-rule="nonzero"/><path fill="#000000" d="M 11.066406 22.53125 C 10.914062 22.53125 10.785156 22.40625 10.785156 22.25 L 10.785156 14.476562 C 10.785156 14.320312 10.910156 14.195312 11.066406 14.195312 C 11.222656 14.195312 11.347656 14.320312 11.347656 14.476562 L 11.347656 22.25 C 11.347656 22.40625 11.222656 22.53125 11.066406 22.53125 Z M 11.066406 22.53125 " fill-opacity="1" fill-rule="nonzero"/><path fill="#000000" d="M 14.730469 22.53125 C 14.578125 22.53125 14.449219 22.40625 14.449219 22.25 L 14.449219 14.476562 C 14.449219 14.320312 14.574219 14.195312 14.730469 14.195312 C 14.886719 14.195312 15.015625 14.320312 15.015625 14.476562 L 15.015625 22.25 C 15.015625 22.40625 14.886719 22.53125 14.730469 22.53125 Z M 14.730469 22.53125 " fill-opacity="1" fill-rule="nonzero"/><path fill="#000000" d="M 18.398438 22.53125 C 18.242188 22.53125 18.113281 22.40625 18.113281 22.25 L 18.113281 14.476562 C 18.113281 14.320312 18.242188 14.195312 18.398438 14.195312 C 18.550781 14.195312 18.679688 14.320312 18.679688 14.476562 L 18.679688 22.25 C 18.679688 22.40625 18.554688 22.53125 18.398438 22.53125 Z M 18.398438 22.53125 " fill-opacity="1" fill-rule="nonzero"/><path fill="#000000" d="M 22.0625 22.53125 C 21.90625 22.53125 21.78125 22.40625 21.78125 22.25 L 21.78125 14.476562 C 21.78125 14.320312 21.90625 14.195312 22.0625 14.195312 C 22.21875 14.195312 22.34375 14.320312 22.34375 14.476562 L 22.34375 22.25 C 22.34375 22.40625 22.21875 22.53125 22.0625 22.53125 Z M 22.0625 22.53125 " fill-opacity="1" fill-rule="nonzero"/><path fill="#000000" d="M 12.4375 6.390625 C 11.882812 6.390625 11.433594 5.941406 11.433594 5.386719 C 11.433594 4.832031 11.882812 4.382812 12.4375 4.382812 C 12.992188 4.382812 13.441406 4.832031 13.441406 5.386719 C 13.441406 5.941406 12.992188 6.390625 12.4375 6.390625 Z M 12.4375 4.664062 C 12.039062 4.664062 11.714844 4.988281 11.714844 5.386719 C 11.714844 5.785156 12.039062 6.109375 12.4375 6.109375 C 12.835938 6.109375 13.160156 5.785156 13.160156 5.386719 C 13.160156 4.988281 12.835938 4.664062 12.4375 4.664062 Z M 12.4375 4.664062 " fill-opacity="1" fill-rule="nonzero"/><path fill="#000000" d="M 28.164062 10.121094 C 27.789062 10.121094 27.480469 9.816406 27.480469 9.4375 C 27.480469 9.058594 27.789062 8.753906 28.164062 8.753906 C 28.542969 8.753906 28.851562 9.058594 28.851562 9.4375 C 28.851562 9.816406 28.542969 10.121094 28.164062 10.121094 Z M 28.164062 9.035156 C 27.945312 9.035156 27.761719 9.214844 27.761719 9.4375 C 27.761719 9.660156 27.945312 9.839844 28.164062 9.839844 C 28.386719 9.839844 28.570312 9.660156 28.570312 9.4375 C 28.570312 9.214844 28.390625 9.035156 28.164062 9.035156 Z M 28.164062 9.035156 " fill-opacity="1" fill-rule="nonzero"/><path fill="#000000" d="M 29.148438 4.894531 C 28.769531 4.894531 28.464844 4.585938 28.464844 4.207031 C 28.464844 3.828125 28.769531 3.523438 29.148438 3.523438 C 29.527344 3.523438 29.835938 3.828125 29.835938 4.207031 C 29.835938 4.585938 29.527344 4.894531 29.148438 4.894531 Z M 29.148438 3.804688 C 28.925781 3.804688 28.746094 3.984375 28.746094 4.207031 C 28.746094 4.429688 28.925781 4.609375 29.148438 4.609375 C 29.371094 4.609375 29.554688 4.429688 29.554688 4.207031 C 29.550781 3.984375 29.371094 3.804688 29.148438 3.804688 Z M 29.148438 3.804688 " fill-opacity="1" fill-rule="nonzero"/><path fill="#ffce00" d="M 30.011719 18.746094 C 29.457031 18.746094 29.007812 18.296875 29.007812 17.742188 C 29.007812 17.1875 29.457031 16.738281 30.011719 16.738281 C 30.566406 16.738281 31.015625 17.1875 31.015625 17.742188 C 31.015625 18.296875 30.566406 18.746094 30.011719 18.746094 Z M 30.011719 17.019531 C 29.613281 17.019531 29.289062 17.34375 29.289062 17.742188 C 29.289062 18.140625 29.613281 18.464844 30.011719 18.464844 C 30.410156 18.464844 30.734375 18.140625 30.734375 17.742188 C 30.734375 17.34375 30.410156 17.019531 30.011719 17.019531 Z M 30.011719 17.019531 " fill-opacity="1" fill-rule="nonzero"/><path fill="#ffce00" d="M 23.699219 5.085938 C 23.214844 5.085938 22.820312 4.691406 22.820312 4.207031 C 22.820312 3.722656 23.214844 3.328125 23.699219 3.328125 C 24.183594 3.328125 24.578125 3.722656 24.578125 4.207031 C 24.578125 4.691406 24.183594 5.085938 23.699219 5.085938 Z M 23.699219 3.613281 C 23.371094 3.613281 23.101562 3.878906 23.101562 4.207031 C 23.101562 4.535156 23.371094 4.804688 23.699219 4.804688 C 24.027344 4.804688 24.296875 4.535156 24.296875 4.207031 C 24.296875 3.878906 24.027344 3.613281 23.699219 3.613281 Z M 23.699219 3.613281 " fill-opacity="1" fill-rule="nonzero"/><path fill="#ffce00" d="M 18.828125 8.398438 C 18.789062 8.398438 18.753906 8.382812 18.726562 8.351562 C 18.671875 8.292969 18.675781 8.207031 18.730469 8.152344 L 20.253906 6.730469 C 20.308594 6.675781 20.398438 6.679688 20.449219 6.738281 C 20.503906 6.792969 20.5 6.882812 20.445312 6.9375 L 18.925781 8.359375 C 18.898438 8.382812 18.863281 8.398438 18.828125 8.398438 Z M 18.828125 8.398438 " fill-opacity="1" fill-rule="nonzero"/><path fill="#ffce00" d="M 20.347656 8.398438 C 20.3125 8.398438 20.277344 8.382812 20.25 8.355469 L 18.726562 6.796875 C 18.671875 6.742188 18.675781 6.652344 18.730469 6.597656 C 18.785156 6.542969 18.875 6.546875 18.929688 6.601562 L 20.449219 8.15625 C 20.503906 8.214844 20.503906 8.300781 20.445312 8.355469 C 20.421875 8.382812 20.382812 8.398438 20.347656 8.398438 Z M 20.347656 8.398438 " fill-opacity="1" fill-rule="nonzero"/><g clip-path="url(#379cb8dcdd)"><path fill="#ffce00" d="M 33.253906 13.457031 L 33.390625 12.652344 L 32.808594 12.085938 L 33.613281 11.96875 L 33.976562 11.234375 L 34.335938 11.96875 L 35.144531 12.085938 L 34.558594 12.652344 L 34.695312 13.457031 L 33.976562 13.078125 Z M 33.976562 12.757812 L 34.324219 12.941406 L 34.257812 12.554688 L 34.539062 12.28125 L 34.148438 12.222656 L 33.976562 11.871094 L 33.800781 12.222656 L 33.410156 12.28125 L 33.691406 12.554688 L 33.628906 12.941406 Z M 33.976562 12.757812 " fill-opacity="1" fill-rule="nonzero"/></g><g clip-path="url(#b2825c8aac)"><path fill="#ffce00" d="M 19.117188 2.753906 L 18.398438 2.375 L 17.675781 2.753906 L 17.8125 1.949219 L 17.226562 1.378906 L 18.035156 1.261719 L 18.398438 0.53125 L 18.757812 1.261719 L 19.566406 1.378906 L 18.980469 1.949219 Z M 18.398438 2.054688 L 18.746094 2.238281 L 18.679688 1.851562 L 18.960938 1.578125 L 18.570312 1.519531 L 18.398438 1.167969 L 18.222656 1.519531 L 17.832031 1.578125 L 18.113281 1.851562 L 18.046875 2.238281 Z M 18.398438 2.054688 " fill-opacity="1" fill-rule="nonzero"/></g></svg>