<svg xmlns="http://www.w3.org/2000/svg" xmlns:xlink="http://www.w3.org/1999/xlink" width="300" zoomAndPan="magnify" viewBox="0 0 224.87999 74.999997" height="100" preserveAspectRatio="xMidYMid meet" version="1.0"><defs><g/><clipPath id="40d5a62c59"><path d="M 11 62 L 25 62 L 25 74.980469 L 11 74.980469 Z M 11 62 " clip-rule="nonzero"/></clipPath><clipPath id="495b825ea2"><path d="M 41 62 L 53 62 L 53 74.980469 L 41 74.980469 Z M 41 62 " clip-rule="nonzero"/></clipPath><clipPath id="8f70582de1"><path d="M 40 62 L 54 62 L 54 74.980469 L 40 74.980469 Z M 40 62 " clip-rule="nonzero"/></clipPath><clipPath id="ffd8069456"><path d="M 70 23 L 75.710938 23 L 75.710938 29 L 70 29 Z M 70 23 " clip-rule="nonzero"/></clipPath><clipPath id="9a34cfb051"><path d="M 36 0.0195312 L 42 0.0195312 L 42 5 L 36 5 Z M 36 0.0195312 " clip-rule="nonzero"/></clipPath><clipPath id="918edfcd79"><rect x="0" width="67" y="0" height="34"/></clipPath><clipPath id="bf9c7b64b4"><path d="M 0.273438 2 L 4 2 L 4 8 L 0.273438 8 Z M 0.273438 2 " clip-rule="nonzero"/></clipPath><clipPath id="6623e1013f"><rect x="0" width="131" y="0" height="10"/></clipPath><clipPath id="b6c783f05d"><path d="M 0.121094 7 L 16 7 L 16 27 L 0.121094 27 Z M 0.121094 7 " clip-rule="nonzero"/></clipPath><clipPath id="ccd6382442"><rect x="0" width="75" y="0" height="34"/></clipPath></defs><path fill="#ffce00" d="M 51.179688 54.195312 L 11.734375 54.195312 L 11.734375 24.578125 L 51.179688 24.578125 C 54.363281 24.578125 56.941406 27.15625 56.941406 30.339844 L 56.941406 48.4375 C 56.941406 51.617188 54.363281 54.195312 51.179688 54.195312 Z M 51.179688 54.195312 " fill-opacity="1" fill-rule="nonzero"/><path fill="#000000" d="M 28.128906 54.816406 L 11.113281 54.816406 L 11.113281 23.957031 L 30.613281 23.957031 C 30.953125 23.957031 31.234375 24.234375 31.234375 24.578125 C 31.234375 24.917969 30.957031 25.199219 30.613281 25.199219 L 12.355469 25.199219 L 12.355469 53.578125 L 28.128906 53.578125 C 28.472656 53.578125 28.75 53.855469 28.75 54.199219 C 28.75 54.539062 28.472656 54.816406 28.128906 54.816406 Z M 28.128906 54.816406 " fill-opacity="1" fill-rule="nonzero"/><path fill="#000000" d="M 54.195312 54.816406 L 30.613281 54.816406 C 30.269531 54.816406 29.992188 54.539062 29.992188 54.195312 C 29.992188 53.855469 30.269531 53.574219 30.613281 53.574219 L 54.195312 53.574219 C 54.535156 53.574219 54.816406 53.851562 54.816406 54.195312 C 54.8125 54.539062 54.535156 54.816406 54.195312 54.816406 Z M 54.195312 54.816406 " fill-opacity="1" fill-rule="nonzero"/><path fill="#000000" d="M 56.941406 52.066406 C 56.601562 52.066406 56.320312 51.789062 56.320312 51.445312 L 56.320312 27.328125 C 56.320312 26.152344 55.363281 25.199219 54.191406 25.199219 L 48.761719 25.199219 C 48.421875 25.199219 48.140625 24.917969 48.140625 24.574219 C 48.140625 24.234375 48.417969 23.953125 48.761719 23.953125 L 54.191406 23.953125 C 56.050781 23.953125 57.5625 25.46875 57.5625 27.324219 L 57.5625 51.445312 C 57.5625 51.789062 57.285156 52.066406 56.941406 52.066406 Z M 56.941406 52.066406 " fill-opacity="1" fill-rule="nonzero"/><path fill="#000000" d="M 44.398438 25.199219 L 35.003906 25.199219 C 34.664062 25.199219 34.382812 24.917969 34.382812 24.574219 C 34.382812 24.234375 34.660156 23.953125 35.003906 23.953125 L 44.398438 23.953125 C 44.742188 23.953125 45.023438 24.230469 45.023438 24.574219 C 45.019531 24.917969 44.742188 25.199219 44.398438 25.199219 Z M 44.398438 25.199219 " fill-opacity="1" fill-rule="nonzero"/><path fill="#000000" d="M 11.734375 25.199219 C 11.394531 25.199219 11.113281 24.917969 11.113281 24.574219 L 11.113281 13.289062 L 0.621094 13.289062 C 0.277344 13.289062 0 13.011719 0 12.667969 C 0 12.324219 0.277344 12.042969 0.621094 12.042969 L 12.355469 12.042969 L 12.355469 24.574219 C 12.355469 24.917969 12.078125 25.199219 11.734375 25.199219 Z M 11.734375 25.199219 " fill-opacity="1" fill-rule="nonzero"/><path fill="#000000" d="M 62.410156 60.746094 L 59.480469 60.746094 C 59.140625 60.746094 58.859375 60.46875 58.859375 60.125 C 58.859375 59.777344 59.136719 59.5 59.480469 59.5 L 62.410156 59.5 C 62.75 59.5 63.03125 59.777344 63.03125 60.125 C 63.03125 60.46875 62.75 60.746094 62.410156 60.746094 Z M 62.410156 60.746094 " fill-opacity="1" fill-rule="nonzero"/><path fill="#000000" d="M 54.195312 60.746094 L 44.398438 60.746094 C 44.058594 60.746094 43.777344 60.46875 43.777344 60.125 C 43.777344 59.777344 44.054688 59.5 44.398438 59.5 L 54.195312 59.5 C 54.535156 59.5 54.816406 59.777344 54.816406 60.125 C 54.816406 60.46875 54.535156 60.746094 54.195312 60.746094 Z M 54.195312 60.746094 " fill-opacity="1" fill-rule="nonzero"/><path fill="#000000" d="M 39.703125 60.746094 L 6.410156 60.746094 L 11.226562 53.84375 C 11.421875 53.5625 11.808594 53.492188 12.089844 53.6875 C 12.371094 53.886719 12.441406 54.269531 12.246094 54.554688 L 8.792969 59.503906 L 39.703125 59.503906 C 40.046875 59.503906 40.324219 59.78125 40.324219 60.125 C 40.324219 60.46875 40.046875 60.746094 39.703125 60.746094 Z M 39.703125 60.746094 " fill-opacity="1" fill-rule="nonzero"/><path fill="#ffce00" d="M 18.199219 62.355469 C 19.730469 62.355469 21.125 62.953125 22.152344 63.925781 C 22.421875 64.179688 22.660156 64.453125 22.875 64.753906 C 22.980469 64.898438 23.074219 65.046875 23.164062 65.199219 C 23.664062 66.054688 23.953125 67.046875 23.953125 68.105469 C 23.953125 71.28125 21.375 73.859375 18.199219 73.859375 C 15.023438 73.859375 12.449219 71.28125 12.449219 68.105469 C 12.449219 65.742188 13.875 63.707031 15.917969 62.824219 " fill-opacity="1" fill-rule="nonzero"/><g clip-path="url(#40d5a62c59)"><path fill="#000000" d="M 18.199219 74.480469 C 14.6875 74.480469 11.828125 71.621094 11.828125 68.105469 C 11.828125 65.5625 13.335938 63.265625 15.671875 62.253906 C 15.984375 62.117188 16.351562 62.261719 16.488281 62.578125 C 16.625 62.890625 16.476562 63.253906 16.164062 63.390625 C 14.285156 64.207031 13.070312 66.054688 13.070312 68.105469 C 13.070312 70.933594 15.371094 73.234375 18.199219 73.234375 C 21.027344 73.234375 23.332031 70.933594 23.332031 68.105469 C 23.332031 67.761719 23.609375 67.480469 23.953125 67.480469 C 24.296875 67.480469 24.574219 67.761719 24.574219 68.105469 C 24.574219 71.621094 21.714844 74.480469 18.199219 74.480469 Z M 18.199219 74.480469 " fill-opacity="1" fill-rule="nonzero"/></g><g clip-path="url(#495b825ea2)"><path fill="#ffce00" d="M 47.074219 62.824219 C 48.605469 62.824219 50 63.421875 51.027344 64.394531 C 51.296875 64.648438 51.535156 64.921875 51.75 65.222656 C 51.851562 65.367188 51.949219 65.515625 52.039062 65.667969 C 52.539062 66.523438 52.828125 67.515625 52.828125 68.578125 C 52.828125 71.753906 50.25 74.328125 47.074219 74.328125 C 43.898438 74.328125 41.320312 71.753906 41.320312 68.578125 C 41.320312 66.210938 42.746094 64.179688 44.789062 63.296875 " fill-opacity="1" fill-rule="nonzero"/></g><g clip-path="url(#8f70582de1)"><path fill="#000000" d="M 47.074219 74.953125 C 43.5625 74.953125 40.703125 72.09375 40.703125 68.578125 C 40.703125 66.035156 42.210938 63.738281 44.546875 62.726562 C 44.859375 62.589844 45.226562 62.734375 45.363281 63.046875 C 45.5 63.363281 45.351562 63.726562 45.039062 63.863281 C 43.160156 64.679688 41.945312 66.527344 41.945312 68.578125 C 41.945312 71.40625 44.246094 73.707031 47.074219 73.707031 C 49.90625 73.707031 52.207031 71.402344 52.207031 68.578125 C 52.207031 68.234375 52.484375 67.953125 52.828125 67.953125 C 53.171875 67.953125 53.449219 68.230469 53.449219 68.578125 C 53.449219 72.089844 50.589844 74.953125 47.074219 74.953125 Z M 47.074219 74.953125 " fill-opacity="1" fill-rule="nonzero"/></g><path fill="#000000" d="M 23.167969 65.820312 C 22.953125 65.820312 22.746094 65.707031 22.628906 65.511719 C 22.550781 65.375 22.460938 65.242188 22.371094 65.117188 C 22.183594 64.851562 21.964844 64.601562 21.726562 64.378906 C 20.769531 63.472656 19.519531 62.976562 18.203125 62.976562 C 17.859375 62.976562 17.582031 62.699219 17.582031 62.355469 C 17.582031 62.011719 17.859375 61.730469 18.203125 61.730469 C 19.839844 61.730469 21.394531 62.351562 22.582031 63.472656 C 22.875 63.753906 23.144531 64.0625 23.378906 64.390625 C 23.496094 64.546875 23.601562 64.714844 23.703125 64.882812 C 23.875 65.179688 23.777344 65.5625 23.480469 65.734375 C 23.378906 65.789062 23.273438 65.820312 23.167969 65.820312 Z M 23.167969 65.820312 " fill-opacity="1" fill-rule="nonzero"/><path fill="#000000" d="M 22.53125 48.574219 C 22.1875 48.574219 21.910156 48.296875 21.910156 47.953125 L 21.910156 30.8125 C 21.910156 30.46875 22.1875 30.191406 22.53125 30.191406 C 22.871094 30.191406 23.152344 30.46875 23.152344 30.8125 L 23.152344 47.953125 C 23.152344 48.296875 22.871094 48.574219 22.53125 48.574219 Z M 22.53125 48.574219 " fill-opacity="1" fill-rule="nonzero"/><path fill="#000000" d="M 30.613281 48.574219 C 30.269531 48.574219 29.992188 48.296875 29.992188 47.953125 L 29.992188 30.8125 C 29.992188 30.46875 30.269531 30.191406 30.613281 30.191406 C 30.953125 30.191406 31.234375 30.46875 31.234375 30.8125 L 31.234375 47.953125 C 31.234375 48.296875 30.953125 48.574219 30.613281 48.574219 Z M 30.613281 48.574219 " fill-opacity="1" fill-rule="nonzero"/><path fill="#000000" d="M 38.695312 48.574219 C 38.351562 48.574219 38.074219 48.296875 38.074219 47.953125 L 38.074219 30.8125 C 38.074219 30.46875 38.351562 30.191406 38.695312 30.191406 C 39.039062 30.191406 39.316406 30.46875 39.316406 30.8125 L 39.316406 47.953125 C 39.316406 48.296875 39.039062 48.574219 38.695312 48.574219 Z M 38.695312 48.574219 " fill-opacity="1" fill-rule="nonzero"/><path fill="#000000" d="M 46.78125 48.574219 C 46.4375 48.574219 46.15625 48.296875 46.15625 47.953125 L 46.15625 30.8125 C 46.15625 30.46875 46.4375 30.191406 46.78125 30.191406 C 47.121094 30.191406 47.402344 30.46875 47.402344 30.8125 L 47.402344 47.953125 C 47.398438 48.296875 47.121094 48.574219 46.78125 48.574219 Z M 46.78125 48.574219 " fill-opacity="1" fill-rule="nonzero"/><path fill="#000000" d="M 25.554688 12.976562 C 24.332031 12.976562 23.339844 11.984375 23.339844 10.761719 C 23.339844 9.539062 24.332031 8.546875 25.554688 8.546875 C 26.777344 8.546875 27.769531 9.539062 27.769531 10.761719 C 27.769531 11.984375 26.777344 12.976562 25.554688 12.976562 Z M 25.554688 9.171875 C 24.675781 9.171875 23.960938 9.882812 23.960938 10.765625 C 23.960938 11.644531 24.675781 12.359375 25.554688 12.359375 C 26.433594 12.359375 27.148438 11.644531 27.148438 10.765625 C 27.148438 9.882812 26.433594 9.171875 25.554688 9.171875 Z M 25.554688 9.171875 " fill-opacity="1" fill-rule="nonzero"/><path fill="#000000" d="M 60.238281 21.210938 C 59.40625 21.210938 58.730469 20.53125 58.730469 19.699219 C 58.730469 18.863281 59.40625 18.1875 60.238281 18.1875 C 61.074219 18.1875 61.75 18.863281 61.75 19.699219 C 61.75 20.53125 61.074219 21.210938 60.238281 21.210938 Z M 60.238281 18.808594 C 59.75 18.808594 59.351562 19.207031 59.351562 19.699219 C 59.351562 20.1875 59.75 20.585938 60.238281 20.585938 C 60.730469 20.585938 61.128906 20.1875 61.128906 19.699219 C 61.132812 19.207031 60.730469 18.808594 60.238281 18.808594 Z M 60.238281 18.808594 " fill-opacity="1" fill-rule="nonzero"/><path fill="#000000" d="M 62.410156 9.675781 C 61.574219 9.675781 60.898438 8.996094 60.898438 8.164062 C 60.898438 7.332031 61.574219 6.652344 62.410156 6.652344 C 63.242188 6.652344 63.917969 7.332031 63.917969 8.164062 C 63.917969 8.996094 63.238281 9.675781 62.410156 9.675781 Z M 62.410156 7.273438 C 61.917969 7.273438 61.519531 7.675781 61.519531 8.164062 C 61.519531 8.652344 61.917969 9.054688 62.410156 9.054688 C 62.898438 9.054688 63.300781 8.652344 63.300781 8.164062 C 63.296875 7.675781 62.898438 7.273438 62.410156 7.273438 Z M 62.410156 7.273438 " fill-opacity="1" fill-rule="nonzero"/><path fill="#ffce00" d="M 64.3125 40.226562 C 63.089844 40.226562 62.097656 39.234375 62.097656 38.011719 C 62.097656 36.789062 63.089844 35.796875 64.3125 35.796875 C 65.535156 35.796875 66.527344 36.789062 66.527344 38.011719 C 66.527344 39.234375 65.535156 40.226562 64.3125 40.226562 Z M 64.3125 36.417969 C 63.433594 36.417969 62.71875 37.132812 62.71875 38.011719 C 62.71875 38.890625 63.433594 39.605469 64.3125 39.605469 C 65.191406 39.605469 65.90625 38.890625 65.90625 38.011719 C 65.90625 37.132812 65.191406 36.417969 64.3125 36.417969 Z M 64.3125 36.417969 " fill-opacity="1" fill-rule="nonzero"/><path fill="#ffce00" d="M 50.390625 10.101562 C 49.320312 10.101562 48.453125 9.230469 48.453125 8.164062 C 48.453125 7.097656 49.320312 6.226562 50.390625 6.226562 C 51.457031 6.226562 52.324219 7.097656 52.324219 8.164062 C 52.324219 9.230469 51.457031 10.101562 50.390625 10.101562 Z M 50.390625 6.847656 C 49.664062 6.847656 49.074219 7.4375 49.074219 8.164062 C 49.074219 8.890625 49.664062 9.480469 50.390625 9.480469 C 51.113281 9.480469 51.703125 8.890625 51.703125 8.164062 C 51.703125 7.441406 51.113281 6.847656 50.390625 6.847656 Z M 50.390625 6.847656 " fill-opacity="1" fill-rule="nonzero"/><path fill="#ffce00" d="M 39.644531 17.402344 C 39.5625 17.402344 39.480469 17.371094 39.417969 17.304688 C 39.300781 17.175781 39.308594 16.980469 39.433594 16.863281 L 42.789062 13.726562 C 42.914062 13.609375 43.109375 13.617188 43.226562 13.742188 C 43.34375 13.867188 43.335938 14.066406 43.210938 14.183594 L 39.859375 17.320312 C 39.796875 17.375 39.722656 17.402344 39.644531 17.402344 Z M 39.644531 17.402344 " fill-opacity="1" fill-rule="nonzero"/><path fill="#ffce00" d="M 43 17.402344 C 42.917969 17.402344 42.839844 17.371094 42.777344 17.308594 L 39.425781 13.875 C 39.304688 13.75 39.308594 13.554688 39.429688 13.4375 C 39.554688 13.316406 39.75 13.320312 39.867188 13.441406 L 43.222656 16.875 C 43.339844 17 43.339844 17.195312 43.21875 17.3125 C 43.15625 17.371094 43.078125 17.402344 43 17.402344 Z M 43 17.402344 " fill-opacity="1" fill-rule="nonzero"/><g clip-path="url(#ffd8069456)"><path fill="#ffce00" d="M 71.460938 28.5625 L 71.761719 26.789062 L 70.476562 25.535156 L 72.253906 25.277344 L 73.050781 23.664062 L 73.847656 25.277344 L 75.628906 25.535156 L 74.339844 26.789062 L 74.644531 28.5625 L 73.050781 27.726562 Z M 73.050781 27.023438 L 73.820312 27.429688 L 73.675781 26.574219 L 74.292969 25.96875 L 73.4375 25.84375 L 73.050781 25.066406 L 72.667969 25.84375 L 71.808594 25.96875 L 72.429688 26.574219 L 72.285156 27.429688 Z M 73.050781 27.023438 " fill-opacity="1" fill-rule="nonzero"/></g><g clip-path="url(#9a34cfb051)"><path fill="#ffce00" d="M 40.289062 4.953125 L 38.695312 4.117188 L 37.101562 4.953125 L 37.40625 3.179688 L 36.117188 1.925781 L 37.898438 1.667969 L 38.695312 0.0546875 L 39.492188 1.667969 L 41.273438 1.925781 L 39.984375 3.179688 Z M 38.695312 3.417969 L 39.464844 3.820312 L 39.316406 2.96875 L 39.9375 2.363281 L 39.078125 2.238281 L 38.695312 1.460938 L 38.3125 2.238281 L 37.453125 2.363281 L 38.074219 2.96875 L 37.929688 3.820312 Z M 38.695312 3.417969 " fill-opacity="1" fill-rule="nonzero"/></g><g transform="matrix(1, 0, 0, 1, 78, 13)"><g clip-path="url(#918edfcd79)"><g fill="#000000" fill-opacity="1"><g transform="translate(1.068614, 25.030449)"><g><path d="M 13 -16.09375 L 13 -12.953125 L 8.734375 -12.953125 L 8.734375 0 L 4.8125 0 L 4.8125 -12.953125 L 0.546875 -12.953125 L 0.546875 -16.09375 Z M 13 -16.09375 "/></g></g></g><g fill="#000000" fill-opacity="1"><g transform="translate(14.606625, 25.030449)"><g><path d="M 5.34375 -12.953125 L 5.34375 -9.703125 L 10.59375 -9.703125 L 10.59375 -6.671875 L 5.34375 -6.671875 L 5.34375 -3.140625 L 11.28125 -3.140625 L 11.28125 0 L 1.421875 0 L 1.421875 -16.09375 L 11.28125 -16.09375 L 11.28125 -12.953125 Z M 5.34375 -12.953125 "/></g></g></g><g fill="#000000" fill-opacity="1"><g transform="translate(26.999283, 25.030449)"><g><path d="M 0.75 -8.0625 C 0.75 -9.65625 1.09375 -11.070312 1.78125 -12.3125 C 2.46875 -13.5625 3.425781 -14.535156 4.65625 -15.234375 C 5.894531 -15.929688 7.289062 -16.28125 8.84375 -16.28125 C 10.757812 -16.28125 12.394531 -15.773438 13.75 -14.765625 C 15.113281 -13.753906 16.023438 -12.378906 16.484375 -10.640625 L 12.171875 -10.640625 C 11.847656 -11.304688 11.390625 -11.816406 10.796875 -12.171875 C 10.210938 -12.523438 9.546875 -12.703125 8.796875 -12.703125 C 7.585938 -12.703125 6.609375 -12.28125 5.859375 -11.4375 C 5.117188 -10.59375 4.75 -9.46875 4.75 -8.0625 C 4.75 -6.65625 5.117188 -5.53125 5.859375 -4.6875 C 6.609375 -3.851562 7.585938 -3.4375 8.796875 -3.4375 C 9.546875 -3.4375 10.210938 -3.613281 10.796875 -3.96875 C 11.390625 -4.320312 11.847656 -4.832031 12.171875 -5.5 L 16.484375 -5.5 C 16.023438 -3.757812 15.113281 -2.390625 13.75 -1.390625 C 12.394531 -0.390625 10.757812 0.109375 8.84375 0.109375 C 7.289062 0.109375 5.894531 -0.234375 4.65625 -0.921875 C 3.425781 -1.617188 2.46875 -2.585938 1.78125 -3.828125 C 1.09375 -5.066406 0.75 -6.476562 0.75 -8.0625 Z M 0.75 -8.0625 "/></g></g></g><g fill="#000000" fill-opacity="1"><g transform="translate(44.454387, 25.030449)"><g><path d="M 15.359375 -16.09375 L 15.359375 0 L 11.4375 0 L 11.4375 -6.625 L 5.34375 -6.625 L 5.34375 0 L 1.421875 0 L 1.421875 -16.09375 L 5.34375 -16.09375 L 5.34375 -9.78125 L 11.4375 -9.78125 L 11.4375 -16.09375 Z M 15.359375 -16.09375 "/></g></g></g><g fill="#000000" fill-opacity="1"><g transform="translate(61.206732, 25.030449)"><g/></g></g></g></g><g transform="matrix(1, 0, 0, 1, 88, 43)"><g clip-path="url(#6623e1013f)"><g clip-path="url(#bf9c7b64b4)"><g fill="#000000" fill-opacity="1"><g transform="translate(0.459132, 7.618884)"><g><path d="M 3.28125 -0.984375 L 3.28125 0 L 0.4375 0 L 0.4375 -4.921875 L 3.28125 -4.921875 L 3.28125 -3.9375 L 1.515625 -3.9375 L 1.515625 -2.953125 L 3.21875 -2.953125 L 3.21875 -1.96875 L 1.515625 -1.96875 L 1.515625 -0.984375 Z M 3.28125 -0.984375 "/></g></g></g></g><g fill="#000000" fill-opacity="1"><g transform="translate(9.965584, 7.618884)"><g><path d="M 3.109375 -1.875 L 2.484375 -3.625 L 1.859375 -1.875 Z M 4.953125 0 L 3.78125 0 L 3.421875 -0.984375 L 1.5625 -0.984375 L 1.203125 0 L 0.03125 0 L 2.03125 -4.921875 L 2.953125 -4.921875 Z M 4.953125 0 "/></g></g></g><g fill="#000000" fill-opacity="1"><g transform="translate(20.738116, 7.618884)"><g><path d="M 2.34375 -0.765625 C 2.457031 -0.765625 2.582031 -0.78125 2.71875 -0.8125 C 2.851562 -0.851562 2.96875 -0.914062 3.0625 -1 C 3.164062 -1.082031 3.21875 -1.195312 3.21875 -1.34375 C 3.21875 -1.476562 3.164062 -1.585938 3.0625 -1.671875 C 2.957031 -1.753906 2.820312 -1.820312 2.65625 -1.875 C 2.488281 -1.925781 2.300781 -1.972656 2.09375 -2.015625 C 1.894531 -2.066406 1.691406 -2.125 1.484375 -2.1875 C 1.285156 -2.25 1.101562 -2.332031 0.9375 -2.4375 C 0.769531 -2.550781 0.632812 -2.691406 0.53125 -2.859375 C 0.425781 -3.023438 0.375 -3.238281 0.375 -3.5 C 0.375 -3.757812 0.425781 -3.976562 0.53125 -4.15625 C 0.632812 -4.34375 0.773438 -4.5 0.953125 -4.625 C 1.128906 -4.75 1.328125 -4.835938 1.546875 -4.890625 C 1.765625 -4.953125 1.988281 -4.984375 2.21875 -4.984375 C 2.550781 -4.984375 2.863281 -4.929688 3.15625 -4.828125 C 3.457031 -4.722656 3.695312 -4.554688 3.875 -4.328125 C 4.0625 -4.097656 4.160156 -3.796875 4.171875 -3.421875 L 3.125 -3.421875 C 3.09375 -3.679688 3.003906 -3.859375 2.859375 -3.953125 C 2.710938 -4.054688 2.503906 -4.109375 2.234375 -4.109375 C 2.128906 -4.109375 2.019531 -4.085938 1.90625 -4.046875 C 1.789062 -4.015625 1.691406 -3.960938 1.609375 -3.890625 C 1.535156 -3.816406 1.5 -3.71875 1.5 -3.59375 C 1.5 -3.46875 1.550781 -3.367188 1.65625 -3.296875 C 1.757812 -3.222656 1.894531 -3.160156 2.0625 -3.109375 C 2.226562 -3.054688 2.410156 -3.007812 2.609375 -2.96875 C 2.816406 -2.925781 3.019531 -2.875 3.21875 -2.8125 C 3.414062 -2.75 3.597656 -2.660156 3.765625 -2.546875 C 3.941406 -2.441406 4.082031 -2.300781 4.1875 -2.125 C 4.289062 -1.957031 4.34375 -1.738281 4.34375 -1.46875 C 4.34375 -1.175781 4.285156 -0.925781 4.171875 -0.71875 C 4.054688 -0.519531 3.898438 -0.359375 3.703125 -0.234375 C 3.503906 -0.117188 3.28125 -0.0351562 3.03125 0.015625 C 2.789062 0.078125 2.546875 0.109375 2.296875 0.109375 C 1.941406 0.109375 1.601562 0.0507812 1.28125 -0.0625 C 0.96875 -0.1875 0.710938 -0.375 0.515625 -0.625 C 0.316406 -0.882812 0.21875 -1.21875 0.21875 -1.625 L 1.3125 -1.625 C 1.332031 -1.320312 1.441406 -1.101562 1.640625 -0.96875 C 1.847656 -0.832031 2.082031 -0.765625 2.34375 -0.765625 Z M 2.34375 -0.765625 "/></g></g></g><g fill="#000000" fill-opacity="1"><g transform="translate(31.083804, 7.618884)"><g><path d="M 1.875 0 L 1.875 -2.34375 L 0.0625 -4.921875 L 1.359375 -4.921875 L 2.421875 -3.21875 L 3.484375 -4.921875 L 4.78125 -4.921875 L 2.953125 -2.34375 L 2.953125 0 Z M 1.875 0 "/></g></g></g><g fill="#000000" fill-opacity="1"><g transform="translate(41.704408, 7.618884)"><g/></g></g><g fill="#000000" fill-opacity="1"><g transform="translate(49.300874, 7.618884)"><g><path d="M 2.34375 -0.765625 C 2.457031 -0.765625 2.582031 -0.78125 2.71875 -0.8125 C 2.851562 -0.851562 2.96875 -0.914062 3.0625 -1 C 3.164062 -1.082031 3.21875 -1.195312 3.21875 -1.34375 C 3.21875 -1.476562 3.164062 -1.585938 3.0625 -1.671875 C 2.957031 -1.753906 2.820312 -1.820312 2.65625 -1.875 C 2.488281 -1.925781 2.300781 -1.972656 2.09375 -2.015625 C 1.894531 -2.066406 1.691406 -2.125 1.484375 -2.1875 C 1.285156 -2.25 1.101562 -2.332031 0.9375 -2.4375 C 0.769531 -2.550781 0.632812 -2.691406 0.53125 -2.859375 C 0.425781 -3.023438 0.375 -3.238281 0.375 -3.5 C 0.375 -3.757812 0.425781 -3.976562 0.53125 -4.15625 C 0.632812 -4.34375 0.773438 -4.5 0.953125 -4.625 C 1.128906 -4.75 1.328125 -4.835938 1.546875 -4.890625 C 1.765625 -4.953125 1.988281 -4.984375 2.21875 -4.984375 C 2.550781 -4.984375 2.863281 -4.929688 3.15625 -4.828125 C 3.457031 -4.722656 3.695312 -4.554688 3.875 -4.328125 C 4.0625 -4.097656 4.160156 -3.796875 4.171875 -3.421875 L 3.125 -3.421875 C 3.09375 -3.679688 3.003906 -3.859375 2.859375 -3.953125 C 2.710938 -4.054688 2.503906 -4.109375 2.234375 -4.109375 C 2.128906 -4.109375 2.019531 -4.085938 1.90625 -4.046875 C 1.789062 -4.015625 1.691406 -3.960938 1.609375 -3.890625 C 1.535156 -3.816406 1.5 -3.71875 1.5 -3.59375 C 1.5 -3.46875 1.550781 -3.367188 1.65625 -3.296875 C 1.757812 -3.222656 1.894531 -3.160156 2.0625 -3.109375 C 2.226562 -3.054688 2.410156 -3.007812 2.609375 -2.96875 C 2.816406 -2.925781 3.019531 -2.875 3.21875 -2.8125 C 3.414062 -2.75 3.597656 -2.660156 3.765625 -2.546875 C 3.941406 -2.441406 4.082031 -2.300781 4.1875 -2.125 C 4.289062 -1.957031 4.34375 -1.738281 4.34375 -1.46875 C 4.34375 -1.175781 4.285156 -0.925781 4.171875 -0.71875 C 4.054688 -0.519531 3.898438 -0.359375 3.703125 -0.234375 C 3.503906 -0.117188 3.28125 -0.0351562 3.03125 0.015625 C 2.789062 0.078125 2.546875 0.109375 2.296875 0.109375 C 1.941406 0.109375 1.601562 0.0507812 1.28125 -0.0625 C 0.96875 -0.1875 0.710938 -0.375 0.515625 -0.625 C 0.316406 -0.882812 0.21875 -1.21875 0.21875 -1.625 L 1.3125 -1.625 C 1.332031 -1.320312 1.441406 -1.101562 1.640625 -0.96875 C 1.847656 -0.832031 2.082031 -0.765625 2.34375 -0.765625 Z M 2.34375 -0.765625 "/></g></g></g><g fill="#000000" fill-opacity="1"><g transform="translate(59.646562, 7.618884)"><g><path d="M 4.234375 -2.46875 C 4.234375 -2.71875 4.164062 -2.953125 4.03125 -3.171875 C 3.894531 -3.398438 3.71875 -3.578125 3.5 -3.703125 C 3.28125 -3.835938 3.039062 -3.90625 2.78125 -3.90625 C 2.53125 -3.90625 2.296875 -3.835938 2.078125 -3.703125 C 1.859375 -3.578125 1.679688 -3.398438 1.546875 -3.171875 C 1.410156 -2.953125 1.34375 -2.71875 1.34375 -2.46875 C 1.34375 -2.21875 1.410156 -1.976562 1.546875 -1.75 C 1.679688 -1.53125 1.859375 -1.351562 2.078125 -1.21875 C 2.296875 -1.082031 2.53125 -1.015625 2.78125 -1.015625 C 3.039062 -1.015625 3.28125 -1.082031 3.5 -1.21875 C 3.71875 -1.351562 3.894531 -1.53125 4.03125 -1.75 C 4.164062 -1.976562 4.234375 -2.21875 4.234375 -2.46875 Z M 5.3125 -2.453125 C 5.3125 -2.117188 5.242188 -1.796875 5.109375 -1.484375 C 4.972656 -1.179688 4.785156 -0.910156 4.546875 -0.671875 C 4.316406 -0.441406 4.050781 -0.257812 3.75 -0.125 C 3.445312 0.0078125 3.125 0.078125 2.78125 0.078125 C 2.445312 0.078125 2.125 0.0078125 1.8125 -0.125 C 1.507812 -0.257812 1.238281 -0.441406 1 -0.671875 C 0.769531 -0.910156 0.585938 -1.179688 0.453125 -1.484375 C 0.316406 -1.796875 0.25 -2.117188 0.25 -2.453125 C 0.25 -2.796875 0.316406 -3.117188 0.453125 -3.421875 C 0.585938 -3.734375 0.769531 -4.003906 1 -4.234375 C 1.238281 -4.472656 1.507812 -4.65625 1.8125 -4.78125 C 2.125 -4.914062 2.445312 -4.984375 2.78125 -4.984375 C 3.125 -4.984375 3.445312 -4.914062 3.75 -4.78125 C 4.050781 -4.65625 4.316406 -4.472656 4.546875 -4.234375 C 4.785156 -4.003906 4.972656 -3.734375 5.109375 -3.421875 C 5.242188 -3.117188 5.3125 -2.796875 5.3125 -2.453125 Z M 5.3125 -2.453125 "/></g></g></g><g fill="#000000" fill-opacity="1"><g transform="translate(71.005117, 7.618884)"><g><path d="M 0.4375 0 L 0.4375 -4.921875 L 1.515625 -4.921875 L 1.515625 -0.984375 L 3.28125 -0.984375 L 3.28125 0 Z M 0.4375 0 "/></g></g></g><g fill="#000000" fill-opacity="1"><g transform="translate(80.330699, 7.618884)"><g><path d="M 3.3125 -4.921875 L 4.390625 -4.921875 L 4.390625 -1.921875 C 4.390625 -1.265625 4.210938 -0.765625 3.859375 -0.421875 C 3.503906 -0.0859375 3.003906 0.078125 2.359375 0.078125 C 1.710938 0.078125 1.210938 -0.0859375 0.859375 -0.421875 C 0.503906 -0.765625 0.328125 -1.265625 0.328125 -1.921875 L 0.328125 -4.921875 L 1.40625 -4.921875 L 1.40625 -2.078125 C 1.40625 -1.734375 1.472656 -1.46875 1.609375 -1.28125 C 1.742188 -1.101562 1.992188 -1.015625 2.359375 -1.015625 C 2.734375 -1.015625 2.984375 -1.101562 3.109375 -1.28125 C 3.242188 -1.46875 3.3125 -1.734375 3.3125 -2.078125 Z M 3.3125 -4.921875 "/></g></g></g><g fill="#000000" fill-opacity="1"><g transform="translate(90.835546, 7.618884)"><g><path d="M 2.53125 -3.9375 L 2.53125 0 L 1.4375 0 L 1.4375 -3.9375 L 0.03125 -3.9375 L 0.03125 -4.921875 L 3.921875 -4.921875 L 3.921875 -3.9375 Z M 2.53125 -3.9375 "/></g></g></g><g fill="#000000" fill-opacity="1"><g transform="translate(100.587982, 7.618884)"><g><path d="M 1.515625 0 L 0.4375 0 L 0.4375 -4.921875 L 1.515625 -4.921875 Z M 1.515625 0 "/></g></g></g><g fill="#000000" fill-opacity="1"><g transform="translate(108.329146, 7.618884)"><g><path d="M 4.234375 -2.46875 C 4.234375 -2.71875 4.164062 -2.953125 4.03125 -3.171875 C 3.894531 -3.398438 3.71875 -3.578125 3.5 -3.703125 C 3.28125 -3.835938 3.039062 -3.90625 2.78125 -3.90625 C 2.53125 -3.90625 2.296875 -3.835938 2.078125 -3.703125 C 1.859375 -3.578125 1.679688 -3.398438 1.546875 -3.171875 C 1.410156 -2.953125 1.34375 -2.71875 1.34375 -2.46875 C 1.34375 -2.21875 1.410156 -1.976562 1.546875 -1.75 C 1.679688 -1.53125 1.859375 -1.351562 2.078125 -1.21875 C 2.296875 -1.082031 2.53125 -1.015625 2.78125 -1.015625 C 3.039062 -1.015625 3.28125 -1.082031 3.5 -1.21875 C 3.71875 -1.351562 3.894531 -1.53125 4.03125 -1.75 C 4.164062 -1.976562 4.234375 -2.21875 4.234375 -2.46875 Z M 5.3125 -2.453125 C 5.3125 -2.117188 5.242188 -1.796875 5.109375 -1.484375 C 4.972656 -1.179688 4.785156 -0.910156 4.546875 -0.671875 C 4.316406 -0.441406 4.050781 -0.257812 3.75 -0.125 C 3.445312 0.0078125 3.125 0.078125 2.78125 0.078125 C 2.445312 0.078125 2.125 0.0078125 1.8125 -0.125 C 1.507812 -0.257812 1.238281 -0.441406 1 -0.671875 C 0.769531 -0.910156 0.585938 -1.179688 0.453125 -1.484375 C 0.316406 -1.796875 0.25 -2.117188 0.25 -2.453125 C 0.25 -2.796875 0.316406 -3.117188 0.453125 -3.421875 C 0.585938 -3.734375 0.769531 -4.003906 1 -4.234375 C 1.238281 -4.472656 1.507812 -4.65625 1.8125 -4.78125 C 2.125 -4.914062 2.445312 -4.984375 2.78125 -4.984375 C 3.125 -4.984375 3.445312 -4.914062 3.75 -4.78125 C 4.050781 -4.65625 4.316406 -4.472656 4.546875 -4.234375 C 4.785156 -4.003906 4.972656 -3.734375 5.109375 -3.421875 C 5.242188 -3.117188 5.3125 -2.796875 5.3125 -2.453125 Z M 5.3125 -2.453125 "/></g></g></g><g fill="#000000" fill-opacity="1"><g transform="translate(119.6877, 7.618884)"><g><path d="M 4.296875 0 L 3.21875 0 L 1.515625 -3.0625 L 1.515625 0 L 0.4375 0 L 0.4375 -4.921875 L 1.515625 -4.921875 L 3.21875 -1.859375 L 3.21875 -4.921875 L 4.296875 -4.921875 Z M 4.296875 0 "/></g></g></g></g></g><g transform="matrix(1, 0, 0, 1, 145, 13)"><g clip-path="url(#ccd6382442)"><g clip-path="url(#b6c783f05d)"><g fill="#000000" fill-opacity="1"><g transform="translate(0.9238, 25.030449)"><g><path d="M 7.242188 1.25 C 5.921875 1.25 4.730469 1.03125 3.667969 0.59375 C 2.546875 0.136719 1.648438 -0.546875 0.972656 -1.457031 C 0.277344 -2.390625 -0.0898438 -3.496094 -0.125 -4.78125 L -0.15625 -5.902344 L 6.117188 -5.902344 L 6.214844 -4.921875 C 6.25 -4.609375 6.335938 -4.386719 6.476562 -4.261719 C 6.621094 -4.132812 6.835938 -4.066406 7.125 -4.066406 C 7.453125 -4.066406 7.6875 -4.121094 7.824219 -4.230469 C 7.855469 -4.257812 7.875 -4.28125 7.886719 -4.308594 C 7.90625 -4.351562 7.917969 -4.410156 7.917969 -4.492188 C 7.917969 -4.582031 7.894531 -4.648438 7.847656 -4.695312 C 7.675781 -4.863281 7.457031 -5.003906 7.1875 -5.117188 C 6.835938 -5.269531 6.324219 -5.445312 5.648438 -5.648438 C 4.546875 -5.988281 3.644531 -6.328125 2.9375 -6.675781 C 2.125 -7.074219 1.429688 -7.652344 0.851562 -8.417969 C 0.230469 -9.238281 -0.0820312 -10.273438 -0.0820312 -11.527344 C -0.0820312 -12.433594 0.0898438 -13.253906 0.425781 -13.984375 C 0.773438 -14.730469 1.285156 -15.371094 1.964844 -15.902344 C 3.246094 -16.902344 4.882812 -17.402344 6.875 -17.402344 C 8.898438 -17.402344 10.546875 -16.902344 11.828125 -15.902344 C 13.175781 -14.847656 13.894531 -13.402344 13.988281 -11.558594 L 14.046875 -10.414062 L 7.636719 -10.414062 L 7.574219 -11.4375 C 7.5625 -11.648438 7.5 -11.800781 7.386719 -11.898438 C 7.238281 -12.023438 7.019531 -12.085938 6.738281 -12.085938 C 6.535156 -12.085938 6.390625 -12.050781 6.304688 -11.976562 C 6.265625 -11.941406 6.246094 -11.851562 6.246094 -11.710938 C 6.246094 -11.652344 6.253906 -11.609375 6.269531 -11.578125 C 6.300781 -11.53125 6.355469 -11.484375 6.445312 -11.429688 C 6.863281 -11.183594 7.554688 -10.902344 8.515625 -10.589844 C 9.609375 -10.222656 10.503906 -9.867188 11.195312 -9.523438 C 11.992188 -9.128906 12.679688 -8.558594 13.257812 -7.816406 C 13.882812 -7.007812 14.195312 -6 14.195312 -4.789062 C 14.195312 -3.664062 13.90625 -2.640625 13.332031 -1.714844 C 12.757812 -0.792969 11.9375 -0.0664062 10.867188 0.46875 C 9.828125 0.988281 8.621094 1.25 7.242188 1.25 Z M 7.242188 -0.929688 C 8.277344 -0.929688 9.160156 -1.109375 9.894531 -1.476562 C 10.597656 -1.828125 11.125 -2.292969 11.484375 -2.867188 C 11.839844 -3.4375 12.019531 -4.078125 12.019531 -4.789062 C 12.019531 -5.503906 11.859375 -6.066406 11.535156 -6.484375 C 11.164062 -6.960938 10.730469 -7.324219 10.230469 -7.570312 C 9.625 -7.871094 8.828125 -8.1875 7.84375 -8.519531 C 6.730469 -8.882812 5.890625 -9.226562 5.332031 -9.558594 C 4.933594 -9.796875 4.625 -10.09375 4.40625 -10.453125 C 4.179688 -10.828125 4.066406 -11.246094 4.066406 -11.710938 C 4.066406 -12.515625 4.335938 -13.152344 4.878906 -13.621094 C 5.371094 -14.050781 5.992188 -14.265625 6.738281 -14.265625 C 7.554688 -14.265625 8.238281 -14.03125 8.792969 -13.558594 C 9.382812 -13.0625 9.699219 -12.398438 9.75 -11.566406 L 8.660156 -11.503906 L 8.660156 -12.59375 L 12.902344 -12.59375 L 12.902344 -11.503906 L 11.8125 -11.449219 C 11.753906 -12.628906 11.3125 -13.542969 10.488281 -14.1875 C 9.601562 -14.878906 8.398438 -15.226562 6.875 -15.226562 C 5.382812 -15.226562 4.191406 -14.878906 3.304688 -14.1875 C 2.902344 -13.871094 2.601562 -13.5 2.402344 -13.070312 C 2.199219 -12.628906 2.097656 -12.113281 2.097656 -11.527344 C 2.097656 -10.761719 2.261719 -10.164062 2.585938 -9.730469 C 2.957031 -9.242188 3.390625 -8.875 3.890625 -8.632812 C 4.5 -8.335938 5.289062 -8.035156 6.269531 -7.734375 C 7.027344 -7.507812 7.621094 -7.304688 8.050781 -7.117188 C 8.5625 -6.898438 9 -6.609375 9.363281 -6.257812 C 9.851562 -5.785156 10.09375 -5.195312 10.09375 -4.492188 C 10.09375 -4.097656 10.019531 -3.738281 9.871094 -3.410156 C 9.714844 -3.0625 9.484375 -2.769531 9.179688 -2.527344 C 8.644531 -2.101562 7.960938 -1.890625 7.125 -1.890625 C 6.285156 -1.890625 5.585938 -2.140625 5.027344 -2.636719 C 4.464844 -3.136719 4.140625 -3.824219 4.050781 -4.699219 L 5.132812 -4.8125 L 5.132812 -3.722656 L 0.960938 -3.722656 L 0.960938 -4.8125 L 2.050781 -4.84375 C 2.074219 -4.019531 2.296875 -3.324219 2.71875 -2.757812 C 3.15625 -2.171875 3.746094 -1.726562 4.492188 -1.417969 C 5.292969 -1.09375 6.207031 -0.929688 7.242188 -0.929688 Z M 7.242188 -0.929688 "/></g></g></g></g><g fill="#000000" fill-opacity="1"><g transform="translate(15.011578, 25.030449)"><g><path d="M 14.082031 -16.085938 L 14.082031 -11.859375 L 8.730469 -11.859375 L 8.730469 -12.945312 L 9.820312 -12.945312 L 9.820312 1.089844 L 3.722656 1.089844 L 3.722656 -12.945312 L 4.8125 -12.945312 L 4.8125 -11.859375 L -0.539062 -11.859375 L -0.539062 -17.175781 L 14.082031 -17.175781 Z M 11.90625 -16.085938 L 12.992188 -16.085938 L 12.992188 -14.996094 L 0.550781 -14.996094 L 0.550781 -16.085938 L 1.636719 -16.085938 L 1.636719 -12.945312 L 0.550781 -12.945312 L 0.550781 -14.035156 L 5.902344 -14.035156 L 5.902344 0 L 4.8125 0 L 4.8125 -1.089844 L 8.730469 -1.089844 L 8.730469 0 L 7.640625 0 L 7.640625 -14.035156 L 12.992188 -14.035156 L 12.992188 -12.945312 L 11.90625 -12.945312 Z M 11.90625 -16.085938 "/></g></g></g><g fill="#000000" fill-opacity="1"><g transform="translate(28.549589, 25.030449)"><g><path d="M 9.027344 1.25 C 7.328125 1.25 5.765625 0.851562 4.339844 0.0585938 C 2.90625 -0.742188 1.769531 -1.855469 0.929688 -3.285156 C 0.0898438 -4.71875 -0.332031 -6.316406 -0.332031 -8.089844 C -0.332031 -9.859375 0.0898438 -11.457031 0.929688 -12.882812 C 1.773438 -14.304688 2.90625 -15.414062 4.339844 -16.210938 C 5.765625 -17.007812 7.328125 -17.402344 9.027344 -17.402344 C 10.730469 -17.402344 12.292969 -17.007812 13.71875 -16.210938 C 15.152344 -15.410156 16.28125 -14.300781 17.109375 -12.875 C 17.933594 -11.453125 18.34375 -9.859375 18.34375 -8.089844 C 18.34375 -6.320312 17.925781 -4.71875 17.097656 -3.289062 C 16.261719 -1.859375 15.132812 -0.742188 13.707031 0.0546875 C 12.289062 0.851562 10.730469 1.25 9.027344 1.25 Z M 9.027344 -0.929688 C 10.351562 -0.929688 11.554688 -1.234375 12.644531 -1.84375 C 13.722656 -2.449219 14.582031 -3.296875 15.214844 -4.386719 C 15.847656 -5.476562 16.167969 -6.710938 16.167969 -8.089844 C 16.167969 -9.46875 15.851562 -10.699219 15.226562 -11.78125 C 14.597656 -12.863281 13.742188 -13.707031 12.65625 -14.3125 C 11.5625 -14.921875 10.351562 -15.226562 9.027344 -15.226562 C 7.703125 -15.226562 6.496094 -14.921875 5.398438 -14.3125 C 4.308594 -13.703125 3.445312 -12.859375 2.804688 -11.773438 C 2.164062 -10.691406 1.84375 -9.464844 1.84375 -8.089844 C 1.84375 -6.714844 2.164062 -5.480469 2.804688 -4.390625 C 3.445312 -3.300781 4.3125 -2.449219 5.398438 -1.84375 C 6.496094 -1.234375 7.703125 -0.929688 9.027344 -0.929688 Z M 9.027344 -4.503906 C 9.988281 -4.503906 10.746094 -4.8125 11.300781 -5.425781 C 11.886719 -6.074219 12.179688 -6.960938 12.179688 -8.089844 C 12.179688 -9.230469 11.886719 -10.117188 11.304688 -10.757812 C 10.75 -11.371094 9.992188 -11.675781 9.027344 -11.675781 C 8.050781 -11.675781 7.28125 -11.371094 6.726562 -10.765625 C 6.144531 -10.136719 5.855469 -9.242188 5.855469 -8.089844 C 5.855469 -6.949219 6.144531 -6.058594 6.730469 -5.417969 C 7.285156 -4.808594 8.050781 -4.503906 9.027344 -4.503906 Z M 9.027344 -2.324219 C 7.410156 -2.324219 6.105469 -2.867188 5.117188 -3.953125 C 4.15625 -5.007812 3.679688 -6.386719 3.679688 -8.089844 C 3.679688 -9.808594 4.160156 -11.191406 5.121094 -12.238281 C 6.109375 -13.316406 7.410156 -13.851562 9.027344 -13.851562 C 10.632812 -13.851562 11.929688 -13.308594 12.914062 -12.222656 C 13.875 -11.167969 14.355469 -9.789062 14.355469 -8.089844 C 14.355469 -6.40625 13.878906 -5.03125 12.917969 -3.96875 C 11.929688 -2.875 10.632812 -2.324219 9.027344 -2.324219 Z M 9.027344 -2.324219 "/></g></g></g><g fill="#000000" fill-opacity="1"><g transform="translate(46.554459, 25.030449)"><g><path d="M 8.671875 0.523438 L 5.324219 -5.546875 L 6.277344 -6.074219 L 6.277344 -4.984375 L 5.339844 -4.984375 L 5.339844 -6.074219 L 6.425781 -6.074219 L 6.425781 1.089844 L 0.332031 1.089844 L 0.332031 -17.175781 L 7.996094 -17.175781 C 9.433594 -17.175781 10.675781 -16.914062 11.722656 -16.398438 C 12.8125 -15.855469 13.636719 -15.105469 14.1875 -14.140625 C 14.726562 -13.203125 14.996094 -12.164062 14.996094 -11.023438 C 14.996094 -9.71875 14.628906 -8.554688 13.886719 -7.523438 C 13.140625 -6.480469 12.058594 -5.75 10.644531 -5.328125 L 10.335938 -6.371094 L 11.273438 -6.917969 L 15.941406 1.089844 L 8.980469 1.089844 Z M 10.578125 -0.523438 L 9.625 0 L 9.625 -1.089844 L 14.046875 -1.089844 L 14.046875 0 L 13.105469 0.546875 L 8.699219 -7.015625 L 10.023438 -7.414062 C 10.960938 -7.695312 11.660156 -8.152344 12.121094 -8.792969 C 12.585938 -9.441406 12.820312 -10.1875 12.820312 -11.023438 C 12.820312 -11.777344 12.648438 -12.453125 12.300781 -13.058594 C 11.96875 -13.636719 11.453125 -14.101562 10.757812 -14.445312 C 10.015625 -14.8125 9.09375 -14.996094 7.996094 -14.996094 L 1.421875 -14.996094 L 1.421875 -16.085938 L 2.507812 -16.085938 L 2.507812 0 L 1.421875 0 L 1.421875 -1.089844 L 5.339844 -1.089844 L 5.339844 0 L 4.25 0 L 4.25 -7.160156 L 6.921875 -7.160156 Z M 5.339844 -9.933594 L 7.769531 -9.933594 C 8.191406 -9.933594 8.476562 -10.003906 8.621094 -10.148438 C 8.761719 -10.289062 8.832031 -10.523438 8.832031 -10.863281 C 8.832031 -11.167969 8.761719 -11.390625 8.621094 -11.527344 C 8.476562 -11.671875 8.191406 -11.742188 7.769531 -11.742188 L 5.339844 -11.742188 L 5.339844 -12.832031 L 6.425781 -12.832031 L 6.425781 -8.84375 L 5.339844 -8.84375 Z M 4.25 -7.757812 L 4.25 -13.921875 L 7.769531 -13.921875 C 8.78125 -13.921875 9.574219 -13.640625 10.144531 -13.082031 C 10.722656 -12.519531 11.011719 -11.777344 11.011719 -10.863281 C 11.011719 -9.914062 10.722656 -9.160156 10.144531 -8.59375 C 9.574219 -8.035156 8.78125 -7.757812 7.769531 -7.757812 Z M 4.25 -7.757812 "/></g></g></g><g fill="#000000" fill-opacity="1"><g transform="translate(61.489792, 25.030449)"><g><path d="M 6.425781 -12.945312 L 6.425781 -9.691406 L 5.339844 -9.691406 L 5.339844 -10.78125 L 11.675781 -10.78125 L 11.675781 -5.578125 L 5.339844 -5.578125 L 5.339844 -6.667969 L 6.425781 -6.667969 L 6.425781 -3.140625 L 5.339844 -3.140625 L 5.339844 -4.226562 L 12.363281 -4.226562 L 12.363281 1.089844 L 0.332031 1.089844 L 0.332031 -17.175781 L 12.363281 -17.175781 L 12.363281 -11.859375 L 5.339844 -11.859375 L 5.339844 -12.945312 Z M 4.25 -14.035156 L 11.273438 -14.035156 L 11.273438 -12.945312 L 10.1875 -12.945312 L 10.1875 -16.085938 L 11.273438 -16.085938 L 11.273438 -14.996094 L 1.421875 -14.996094 L 1.421875 -16.085938 L 2.507812 -16.085938 L 2.507812 0 L 1.421875 0 L 1.421875 -1.089844 L 11.273438 -1.089844 L 11.273438 0 L 10.1875 0 L 10.1875 -3.140625 L 11.273438 -3.140625 L 11.273438 -2.050781 L 4.25 -2.050781 L 4.25 -7.757812 L 10.585938 -7.757812 L 10.585938 -6.667969 L 9.5 -6.667969 L 9.5 -9.691406 L 10.585938 -9.691406 L 10.585938 -8.605469 L 4.25 -8.605469 Z M 4.25 -14.035156 "/></g></g></g><g fill="#ffce00" fill-opacity="1"><g transform="translate(0.9238, 25.030449)"><g><path d="M 7.25 0.15625 C 6.070312 0.15625 5.015625 -0.03125 4.078125 -0.40625 C 3.148438 -0.789062 2.40625 -1.359375 1.84375 -2.109375 C 1.289062 -2.859375 1 -3.757812 0.96875 -4.8125 L 5.140625 -4.8125 C 5.191406 -4.21875 5.394531 -3.765625 5.75 -3.453125 C 6.101562 -3.140625 6.5625 -2.984375 7.125 -2.984375 C 7.707031 -2.984375 8.164062 -3.113281 8.5 -3.375 C 8.84375 -3.644531 9.015625 -4.019531 9.015625 -4.5 C 9.015625 -4.894531 8.878906 -5.222656 8.609375 -5.484375 C 8.335938 -5.742188 8.003906 -5.957031 7.609375 -6.125 C 7.222656 -6.289062 6.671875 -6.476562 5.953125 -6.6875 C 4.921875 -7.007812 4.078125 -7.332031 3.421875 -7.65625 C 2.765625 -7.976562 2.195312 -8.453125 1.71875 -9.078125 C 1.25 -9.703125 1.015625 -10.519531 1.015625 -11.53125 C 1.015625 -13.03125 1.554688 -14.203125 2.640625 -15.046875 C 3.722656 -15.898438 5.132812 -16.328125 6.875 -16.328125 C 8.644531 -16.328125 10.070312 -15.898438 11.15625 -15.046875 C 12.25 -14.203125 12.832031 -13.019531 12.90625 -11.5 L 8.671875 -11.5 C 8.640625 -12.019531 8.445312 -12.429688 8.09375 -12.734375 C 7.738281 -13.035156 7.285156 -13.1875 6.734375 -13.1875 C 6.265625 -13.1875 5.882812 -13.054688 5.59375 -12.796875 C 5.300781 -12.546875 5.15625 -12.1875 5.15625 -11.71875 C 5.15625 -11.195312 5.398438 -10.789062 5.890625 -10.5 C 6.378906 -10.207031 7.144531 -9.894531 8.1875 -9.5625 C 9.21875 -9.207031 10.054688 -8.867188 10.703125 -8.546875 C 11.359375 -8.222656 11.921875 -7.753906 12.390625 -7.140625 C 12.867188 -6.535156 13.109375 -5.753906 13.109375 -4.796875 C 13.109375 -3.878906 12.875 -3.046875 12.40625 -2.296875 C 11.945312 -1.546875 11.269531 -0.945312 10.375 -0.5 C 9.488281 -0.0625 8.445312 0.15625 7.25 0.15625 Z M 7.25 0.15625 "/></g></g></g><g fill="#ffce00" fill-opacity="1"><g transform="translate(15.011578, 25.030449)"><g><path d="M 13 -16.09375 L 13 -12.953125 L 8.734375 -12.953125 L 8.734375 0 L 4.8125 0 L 4.8125 -12.953125 L 0.546875 -12.953125 L 0.546875 -16.09375 Z M 13 -16.09375 "/></g></g></g><g fill="#ffce00" fill-opacity="1"><g transform="translate(28.549589, 25.030449)"><g><path d="M 9.03125 0.15625 C 7.519531 0.15625 6.132812 -0.191406 4.875 -0.890625 C 3.613281 -1.597656 2.609375 -2.582031 1.859375 -3.84375 C 1.117188 -5.101562 0.75 -6.519531 0.75 -8.09375 C 0.75 -9.664062 1.117188 -11.078125 1.859375 -12.328125 C 2.609375 -13.585938 3.613281 -14.566406 4.875 -15.265625 C 6.132812 -15.972656 7.519531 -16.328125 9.03125 -16.328125 C 10.539062 -16.328125 11.925781 -15.972656 13.1875 -15.265625 C 14.445312 -14.566406 15.441406 -13.585938 16.171875 -12.328125 C 16.898438 -11.078125 17.265625 -9.664062 17.265625 -8.09375 C 17.265625 -6.519531 16.894531 -5.101562 16.15625 -3.84375 C 15.425781 -2.582031 14.429688 -1.597656 13.171875 -0.890625 C 11.921875 -0.191406 10.539062 0.15625 9.03125 0.15625 Z M 9.03125 -3.421875 C 10.3125 -3.421875 11.335938 -3.847656 12.109375 -4.703125 C 12.878906 -5.554688 13.265625 -6.6875 13.265625 -8.09375 C 13.265625 -9.507812 12.878906 -10.640625 12.109375 -11.484375 C 11.335938 -12.335938 10.3125 -12.765625 9.03125 -12.765625 C 7.726562 -12.765625 6.691406 -12.34375 5.921875 -11.5 C 5.148438 -10.664062 4.765625 -9.53125 4.765625 -8.09375 C 4.765625 -6.664062 5.148438 -5.53125 5.921875 -4.6875 C 6.691406 -3.84375 7.726562 -3.421875 9.03125 -3.421875 Z M 9.03125 -3.421875 "/></g></g></g><g fill="#ffce00" fill-opacity="1"><g transform="translate(46.554459, 25.030449)"><g><path d="M 9.625 0 L 6.28125 -6.078125 L 5.34375 -6.078125 L 5.34375 0 L 1.421875 0 L 1.421875 -16.09375 L 8 -16.09375 C 9.269531 -16.09375 10.347656 -15.867188 11.234375 -15.421875 C 12.128906 -14.984375 12.796875 -14.378906 13.234375 -13.609375 C 13.679688 -12.835938 13.90625 -11.976562 13.90625 -11.03125 C 13.90625 -9.957031 13.601562 -9 13 -8.15625 C 12.40625 -7.320312 11.519531 -6.726562 10.34375 -6.375 L 14.046875 0 Z M 5.34375 -8.84375 L 7.765625 -8.84375 C 8.484375 -8.84375 9.019531 -9.019531 9.375 -9.375 C 9.738281 -9.726562 9.921875 -10.222656 9.921875 -10.859375 C 9.921875 -11.472656 9.738281 -11.957031 9.375 -12.3125 C 9.019531 -12.664062 8.484375 -12.84375 7.765625 -12.84375 L 5.34375 -12.84375 Z M 5.34375 -8.84375 "/></g></g></g><g fill="#ffce00" fill-opacity="1"><g transform="translate(61.489792, 25.030449)"><g><path d="M 5.34375 -12.953125 L 5.34375 -9.703125 L 10.59375 -9.703125 L 10.59375 -6.671875 L 5.34375 -6.671875 L 5.34375 -3.140625 L 11.28125 -3.140625 L 11.28125 0 L 1.421875 0 L 1.421875 -16.09375 L 11.28125 -16.09375 L 11.28125 -12.953125 Z M 5.34375 -12.953125 "/></g></g></g></g></g></svg>